
Format : MPEG-4
Format profile : Base Media / Version 2
Codec ID : mp42
File size : 376 MiB
Duration : 1h 30mn
Overall bit rate : 578 Kbps
Encoded date : UTC 2010-10-09 09:40:31
Tagged date : UTC 2010-10-09 09:40:58
Writing application : mp4creator 1.6.1d

Video
ID : 1
Format : AVC
Format/Info : Advanced Video Codec
Format profile : Baseline@L1.3
Format settings, CABAC : No
Format settings, ReFrames : 1 frame
Codec ID : avc1
Codec ID/Info : Advanced Video Coding
Duration : 1h 30mn
Bit rate mode : Variable
Bit rate : 510 Kbps
Width : 480 pixels
Height : 272 pixels
Display aspect ratio : 16:9
Original display aspect ratio : 16:9
Frame rate mode : Constant
Frame rate : 24.000 fps
Resolution : 24 bits
Colorimetry : 4:2:0
Scan type : Progressive
Bits/(Pixel*Frame) : 0.163
Stream size : 332 MiB (88%)
Encoded date : UTC 2010-10-09 09:40:31
Tagged date : UTC 2010-10-09 09:40:55

Audio
ID : 2
Format : AAC
Format/Info : Advanced Audio Codec
Format version : Version 4
Format profile : LC
Format settings, SBR : Yes
Format settings, PS : No
Codec ID : 40
Duration : 1h 30mn
Bit rate mode : Variable
Bit rate : 66.15 Kbps
Maximum bit rate : 113 Kbps
Channel(s) : 2 channels
Channel positions : L R
Sampling rate : 48.0 KHz
Resolution : 16 bits
Stream size : 42.9 MiB (11%)
Encoded date : UTC 2010-10-09 09:40:55
Tagged date : UTC 2010-10-09 09:40:58

The film opens by introducing us to the main players. There’s Davis (Shane Kippel), a 16-year-old nabbed for drug possession, Angel (Mateo Morales), a 15-year-old convicted of assault and auto theft and Butch (Adam Butcher), a 17-year-old on lockdown for assaulting a correctional . Upon handing over their personal items in exchange for their prison garb, the boys are rough and tough, seemingly unconcerned with their current situation. However, it doesn’t take long until they feel the pressure of their keeper, Officer Goodyear (Lawrence Bayne), and the wrath of the resident bully, Banks.
 
http://www.imdb.com/title/tt1422020/

screen shots
 
http://img408.imageshack.us/img408/6293/dogpoundh264vicemp4snap.jpg 
http://img515.imageshack.us/img515/6293/dogpoundh264vicemp4snap.jpg 
http://img135.imageshack.us/img135/6293/dogpoundh264vicemp4snap.jpg 
http://img718.imageshack.us/img718/6293/dogpoundh264vicemp4snap.jpg
 
http://img221.imageshack.us/img221/7584/dogpoundh264vicemp4thum.jpg